<svg xmlns="http://www.w3.org/2000/svg" xmlns:xlink="http://www.w3.org/1999/xlink" viewBox="0 0 172.2 54.2"><defs><style>.cls-1{fill:#fff;}.cls-2{fill:url(#linear-gradient);}.cls-3{fill:url(#linear-gradient-2);}</style><linearGradient id="linear-gradient" x1="129.14" y1="12.8" x2="175.15" y2="45.82" gradientUnits="userSpaceOnUse"><stop offset="0" stop-color="#76f6f5"/><stop offset="1" stop-color="#b541fa"/></linearGradient><linearGradient id="linear-gradient-2" x1="137.85" y1="0.66" x2="183.86" y2="33.69" xlink:href="#linear-gradient"/></defs><g id="Layer_2" data-name="Layer 2"><g id="Layer_1-2" data-name="Layer 1"><path class="cls-1" d="M51.8,17.7a10.7,10.7,0,0,0-1.4-1.6,7.2,7.2,0,0,0-2.1-1.2,7.7,7.7,0,0,0-2.7-.4,8.3,8.3,0,0,0-4.4,1.2,9.6,9.6,0,0,0-3.1,3.5,9.9,9.9,0,0,0-1.2,4.9,10.3,10.3,0,0,0,1.2,5,8.5,8.5,0,0,0,3,3.5,7.9,7.9,0,0,0,4.2,1.2,7.5,7.5,0,0,0,2.6-.4,15.1,15.1,0,0,0,2.2-1.1,8.7,8.7,0,0,0,1.7-1.6h0v2.9h3.7V14.9H51.8Zm-.6,9.7a6.4,6.4,0,0,1-2,2.3,5.7,5.7,0,0,1-2.9.8,5.5,5.5,0,0,1-2.9-.8,5.6,5.6,0,0,1-2-2.3,6.7,6.7,0,0,1-.7-3.3,6.8,6.8,0,0,1,.7-3.2,5.3,5.3,0,0,1,2-2.2,4.7,4.7,0,0,1,2.9-.8,4.9,4.9,0,0,1,2.9.8,6.1,6.1,0,0,1,2,2.2,6.8,6.8,0,0,1,.7,3.2A6.7,6.7,0,0,1,51.2,27.4Z"/><rect class="cls-1" x="60.6" y="7.3" width="3.6" height="26.2"/><rect class="cls-1" x="70.1" y="14.9" width="3.6" height="18.59"/><path class="cls-1" d="M71.8,6.2a2.8,2.8,0,0,0-1.8.6,2.4,2.4,0,0,0-.6,1.7,2.4,2.4,0,0,0,.6,1.7,2.4,2.4,0,0,0,1.8.6,2.1,2.1,0,0,0,1.8-.7,2.2,2.2,0,0,0,.7-1.6,1.9,1.9,0,0,0-.7-1.7A2.4,2.4,0,0,0,71.8,6.2Z"/><path class="cls-1" d="M93.5,15.8A8.4,8.4,0,0,0,89,14.6a8,8,0,0,0-3,.6,7.8,7.8,0,0,0-2.4,1.6l-.6.8V14.9H79.3V41.3H83V31l.4.5A8.2,8.2,0,0,0,86,33.1a6.7,6.7,0,0,0,3.1.7,7.6,7.6,0,0,0,4.4-1.3,8.5,8.5,0,0,0,3.1-3.4,11,11,0,0,0,1.1-4.9,10,10,0,0,0-1.2-5A8.3,8.3,0,0,0,93.5,15.8Zm-.1,11.6a5.3,5.3,0,0,1-2,2.2,5.7,5.7,0,0,1-5.8,0,5.6,5.6,0,0,1-2.1-2.2,6.8,6.8,0,0,1-.7-3.2,7.2,7.2,0,0,1,.7-3.3,6.3,6.3,0,0,1,2.1-2.2,5.7,5.7,0,0,1,5.8,0,5,5,0,0,1,2,2.3,6.6,6.6,0,0,1,.8,3.2A6.9,6.9,0,0,1,93.4,27.4Z"/><path class="cls-1" d="M116.1,17a8.8,8.8,0,0,0-6.1-2.5,9.5,9.5,0,0,0-3.8.7,9.3,9.3,0,0,0-3,2,9.6,9.6,0,0,0-2,3.2,10.2,10.2,0,0,0-.7,4,9.2,9.2,0,0,0,4.7,8.2,10.7,10.7,0,0,0,5.1,1.2,12.4,12.4,0,0,0,2.7-.3l2.6-1a11.5,11.5,0,0,0,2-1.5l-1.8-2.6a8.3,8.3,0,0,1-2.6,1.6,5.3,5.3,0,0,1-2.5.5,7.8,7.8,0,0,1-3.5-.8,5.4,5.4,0,0,1-2.3-2.2,6.1,6.1,0,0,1-.7-2.4h14.2V23.5a8.5,8.5,0,0,0-.6-3.6A10.5,10.5,0,0,0,116.1,17Zm-9.3,1.6a6.1,6.1,0,0,1,3.2-.8,4.3,4.3,0,0,1,2.2.6,3.9,3.9,0,0,1,1.7,1.4,3.9,3.9,0,0,1,.8,2.1v.2H104.3a5.8,5.8,0,0,1,.5-1.4A3.8,3.8,0,0,1,106.8,18.6Z"/><path class="cls-1" d="M131.7,14.5a5.7,5.7,0,0,0-2.5.6,9.2,9.2,0,0,0-2.2,1.8,4.6,4.6,0,0,0-.9,1.5V14.9h-3.7V33.5h3.7V23.2a4.1,4.1,0,0,1,.4-1.9,4,4,0,0,1,1-1.5,4.9,4.9,0,0,1,1.5-1,4.1,4.1,0,0,1,1.9-.4h1l.9.3,1-3.9-.9-.3Z"/><path class="cls-2" d="M143.5,8.7l-9.6,24.8h3.9l2.4-6.2h10.3l2.4,6.2H157L147.4,8.7Zm-1.9,14.9,1.9-4.9c.1-.4.3-.9.5-1.5l.6-2a14.6,14.6,0,0,0,.7-1.9c0-.1.1-.2.1-.3h0c.2.6.5,1.3.7,2.1s.5,1.5.7,2.1a4.9,4.9,0,0,0,.4,1.2l1.9,5.1Z"/><polygon class="cls-3" points="172.2 12.2 172.2 8.7 160.4 8.7 160.4 12.2 164.4 12.2 164.4 29.9 160.4 29.9 160.4 33.5 172.2 33.5 172.2 29.9 168.2 29.9 168.2 12.2 172.2 12.2"/><path class="cls-1" d="M22.5,6,18.9,8.2l2,3.4a10.4,10.4,0,0,1,4.3-.9,10.5,10.5,0,0,1,3,.5A12.2,12.2,0,0,1,31,12.6a14.1,14.1,0,0,1,2.4,2l3.6-4A10.8,10.8,0,0,0,34,8a16.2,16.2,0,0,0-4.2-2,14.3,14.3,0,0,0-4.6-.7l-3,.3c.1,0,.1.1.2.2Z"/><path class="cls-1" d="M33.4,37.8A19.1,19.1,0,0,1,29,39.4h0l2.5,4.2,4.8-2.8-2.1-3.6Z"/><path class="cls-1" d="M33.8,36.8h.3l.5-.3h0L36,35.1l-2.8-4.4A10.9,10.9,0,0,1,31.5,32a.1.1,0,0,1-.1.1h-.3a14.3,14.3,0,0,1-2.8,1.3l-2.6.4H24.5a12.4,12.4,0,0,1-4-.8,8.8,8.8,0,0,1-3.6-2.4,9.7,9.7,0,0,1-2.3-3.6,11.9,11.9,0,0,1-.9-4.7,23.8,23.8,0,0,1,.6-3.7l-2.4-4.1-3,1.9-.6,2.3A19.8,19.8,0,0,0,8,22.4a19.2,19.2,0,0,0,1.2,6.9,16.3,16.3,0,0,0,3.3,5.4,15.4,15.4,0,0,0,5.2,3.5,17.1,17.1,0,0,0,6.5,1.2l3.7-.3h.5a.1.1,0,0,0,.1-.1h.4a17.6,17.6,0,0,0,4.2-1.7Z"/><path class="cls-1" d="M13.2,13.1l.8-.4,6.6,11.1-.7.5,5.4,9.1a12.6,12.6,0,0,0,2.8-.4,11.1,11.1,0,0,0,2.7-1.2h0L24.5,21.3l-.9.6L16.8,10.5l.9-.5L14.6,4.7,12.4,1.1,7.7,4,9.3,6.7Z"/><polygon class="cls-1" points="22.9 14.6 23.4 14.2 22.4 12.7 21.9 13 22 13.1 22.9 14.6 22.9 14.6"/><rect class="cls-1" x="21.8" y="13.5" width="0.4" height="1.17" transform="translate(-4.1 13.3) rotate(-30.9)"/><path class="cls-1" d="M18.2,9.7l.7-.4L18,7.9l3.6-2.1a2.2,2.2,0,0,0-1.4-.9,2,2,0,0,0-1.7.2L16.3,6.5Z"/><polygon class="cls-1" points="13.3 13.4 13.2 13.4 13.2 13.4 13.1 13.5 12.3 14 12.3 14 18.7 24.7 19.5 24.2 19.6 24.1 19.7 24 20.3 23.7 13.9 13 13.3 13.4"/><polygon class="cls-1" points="18.8 9.7 18.8 9.7 18.2 10 18.1 10.1 18.1 10.1 18 10.1 17.9 10.2 17.2 10.6 23.7 21.5 24.4 21.1 24.5 21 24.6 20.9 25.3 20.5 18.9 9.8 18.8 9.7"/><path class="cls-1" d="M16.9,3a2.3,2.3,0,0,0,.9-3L14.2,2.1,13.3.6l-.7.4,2.1,3.4Z"/><path class="cls-1" d="M11.9,13.9l.9-.5-1.6-2.6L2.6,15.9a3.3,3.3,0,0,0,1.9,1.4,3.4,3.4,0,0,0,2.4-.4l5-3Z"/><path class="cls-1" d="M7.4,4.1,1.5,7.6a3.5,3.5,0,0,0-1.4,2,3.1,3.1,0,0,0,.3,2.3L9,6.7Z"/><path class="cls-1" d="M8.5,54.1V48h2.4a2.2,2.2,0,0,1,1.2.2,1.5,1.5,0,0,1,.9.6,2.1,2.1,0,0,1,.6,1,4,4,0,0,1,0,2.5,2.1,2.1,0,0,1-.6,1l-.9.6-1.2.2Zm1-.8h1.4l.8-.2c.2-.1.5-.2.6-.4a1.6,1.6,0,0,0,.4-.7,2.2,2.2,0,0,0,.1-.9,2.8,2.8,0,0,0-.1-.9c-.1-.2-.2-.5-.4-.6l-.6-.5H9.5Z"/><path class="cls-1" d="M17,54.1V48h3.9v.9H18v4.3h2.9v.9Zm.4-2.7v-.9h3v.9Z"/><path class="cls-1" d="M24.3,54.1V48h1v5.2h2.8v.9Z"/><path class="cls-1" d="M31.3,54.1v-.9h1V48.8h-1V48h2.9v.8h-1v4.4h1v.9Z"/><path class="cls-1" d="M39.4,54.1,37,48h1l1.5,3.7.2.5a.6.6,0,0,1,.1.4l.2.3a.4.4,0,0,0,.1.3h-.3c.1-.1.1-.2.2-.4s.1-.3.1-.5l.3-.6L41.7,48h1.1l-2.5,6.1Z"/><path class="cls-1" d="M45.8,54.1V48h3.9v.9H46.8v4.3h2.9v.9Zm.4-2.7v-.9h3v.9Z"/><path class="cls-1" d="M53.1,54.1V48h2.6a1.6,1.6,0,0,1,1,.2,2.3,2.3,0,0,1,.7.7,1.7,1.7,0,0,1,.3,1,1.4,1.4,0,0,1-.3.9,1.6,1.6,0,0,1-.7.7,1.7,1.7,0,0,1-1,.3H54.1v2.3Zm1-3.2h2.2l.3-.4a1.3,1.3,0,0,0,0-1l-.4-.4H54.1Zm2.7,3.2-1.6-2.8,1-.2,1.7,3Z"/><path class="cls-1" d="M60.9,54.1v-.9h1V48.8h-1V48h3v.8h-1v4.4h1v.9Z"/><path class="cls-1" d="M67.3,54.1V48h.8l3.8,5h-.2v-.5c0-.2-.1-.4-.1-.6V48h.9v6.1h-.9l-3.7-4.8v-.2a3.4,3.4,0,0,1,.1.9c0,.3.1.5.1.7v.7h0v2.6Z"/><path class="cls-1" d="M78.9,54.2a4.9,4.9,0,0,1-2.3-.9,2.1,2.1,0,0,1-.6-1,2.8,2.8,0,0,1-.3-1.3,2.7,2.7,0,0,1,.3-1.2,2.1,2.1,0,0,1,.6-1l1-.7,1.3-.2h.9a2,2,0,0,1,.8.4l.6.6-.6.6-.6-.4-.5-.3h-.6L78,49l-.7.5-.5.7a1.9,1.9,0,0,0-.1.8,1.5,1.5,0,0,0,.2.9,1.6,1.6,0,0,0,.4.7l.8.5.8.2h.7l.5-.3.4-.4a1.3,1.3,0,0,0,.1-.6H78.9V51h2.7v.4a2.2,2.2,0,0,1-.2,1.1A3.5,3.5,0,0,1,80,54Z"/><path class="cls-1" d="M89.2,54.1V48h2.5a1.5,1.5,0,0,1,.9.2,1.3,1.3,0,0,1,.6.7,1.6,1.6,0,0,1,.3.9,1.7,1.7,0,0,1-.3,1,1.3,1.3,0,0,1-.6.7,1.5,1.5,0,0,1-.9.2H90.1v2.4Zm.9-3.3h2l.3-.4a.7.7,0,0,0,.1-.5.6.6,0,0,0-.1-.4l-.3-.4h-2Z"/><path class="cls-1" d="M96.7,54.1V48h2.6a1.8,1.8,0,0,1,1,.2l.7.7a3,3,0,0,1,.2,1,2.4,2.4,0,0,1-.2.9,1.6,1.6,0,0,1-.7.7,1.9,1.9,0,0,1-1,.3H97.6v2.3Zm.9-3.2h2.2c.2-.1.3-.2.3-.4a.7.7,0,0,0,0-1,.8.8,0,0,0-.4-.4H97.6Zm2.7,3.2-1.5-2.8.9-.2,1.8,3Z"/><path class="cls-1" d="M104.7,54.1V48h3.9v.9h-3v4.3h3v.9Zm.4-2.7v-.9h3v.9Z"/><path class="cls-1" d="M114.5,54.2l-1.2-.2-.9-.7a2.1,2.1,0,0,1-.6-1,2.7,2.7,0,0,1-.2-1.3,2.5,2.5,0,0,1,.2-1.2l.6-1,1-.7,1.2-.2h.8l.8.4a3.4,3.4,0,0,1,.6.6l-.6.6-.6-.4-.5-.3h-1.3a1.8,1.8,0,0,0-.7.5,1.6,1.6,0,0,0-.4.7,1.9,1.9,0,0,0-.2.8,2,2,0,0,0,.2.9,1.6,1.6,0,0,0,.4.7,1.8,1.8,0,0,0,.7.5h1.4l.6-.3.4-.3.5.7-.6.5-.7.3Z"/><path class="cls-1" d="M119.7,54.1v-.9h1V48.8h-1V48h2.9v.8h-1v4.4h1v.9Z"/><path class="cls-1" d="M127.9,54.2H127l-.8-.4-.6-.7.6-.8a2.5,2.5,0,0,0,.9.9c.2.2.5.2.9.2h.6c.2,0,.3-.1.4-.3a.5.5,0,0,0,.2-.4.4.4,0,0,0-.1-.3c0-.1,0-.2-.1-.2l-.3-.2a.5.5,0,0,0-.4-.2h-.5l-.9-.3a2.9,2.9,0,0,1-.9-.9,1.7,1.7,0,0,1-.1-.7.8.8,0,0,1,.2-.7,1,1,0,0,1,.4-.5l.7-.4h1.7l.7.4a1,1,0,0,1,.5.6l-.7.6-.4-.5-.5-.3h-1.1l-.4.3a.8.8,0,0,0-.2.5c0,.1.1.2.1.3l.2.3.4.2h.6l.9.3.6.4a1,1,0,0,1,.4.5,1.3,1.3,0,0,1,.1.6,3,3,0,0,1-.2,1,2.7,2.7,0,0,1-.8.7Z"/><path class="cls-1" d="M133.2,54.1v-.9h1V48.8h-1V48h2.9v.8h-1v4.4h1v.9Z"/><path class="cls-1" d="M142,54.2a2.1,2.1,0,0,1-1.2-.3,2.4,2.4,0,0,1-1.6-1.6A2.7,2.7,0,0,1,139,51a2.5,2.5,0,0,1,.2-1.2,2.1,2.1,0,0,1,.6-1l1-.7,1.2-.2,1.2.2.9.7a3.6,3.6,0,0,1,.7,1,4,4,0,0,1,0,2.5,3.6,3.6,0,0,1-.7,1,2.4,2.4,0,0,1-.9.6A2.7,2.7,0,0,1,142,54.2Zm0-.9.8-.2a1.5,1.5,0,0,0,.6-.5,1.8,1.8,0,0,0,.5-.7,2.5,2.5,0,0,0,.1-.9,2.8,2.8,0,0,0-.1-.9l-.5-.7c-.1-.2-.4-.3-.6-.4a1.2,1.2,0,0,0-.8-.2,1.5,1.5,0,0,0-.9.2l-.6.4a2.5,2.5,0,0,0-.4.7,2.9,2.9,0,0,0-.2.9,2.4,2.4,0,0,0,.2.9,1.6,1.6,0,0,0,.4.7l.6.5Z"/><path class="cls-1" d="M148.2,54.1V48h.8l3.8,5h-.2v-.5a1.3,1.3,0,0,0-.1-.6V48h.9v6.1h-.8l-3.7-4.8V50a2,2,0,0,1,.1.7v.7h0v2.6Z"/><path class="cls-1" d="M160.8,54.1l2.4-6.1h1l2.3,6.1h-1l-1.4-3.7a.4.4,0,0,1-.1-.3l-.2-.5c0-.2-.1-.4-.1-.6l-.2-.3h.2a.8.8,0,0,1-.1.4c0,.2-.1.3-.1.5l-.2.5a.4.4,0,0,0-.1.3l-1.4,3.7Zm1.1-1.5.3-.9H165l.4.9Z"/><path class="cls-1" d="M169.3,54.1v-.9h1V48.8h-1V48h2.9v.8h-1v4.4h1v.9Z"/></g></g></svg>